HIERARCHY
ROOT joint_Root
{
	OFFSET 0.0 0.0 0.0
	CHANNELS 6 Xposition Yposition Zposition Zrotation Xrotation Yrotation 
	JOINT Hips
	{
		OFFSET 4.5925 91.4895 -427.239
		CHANNELS 6 Xposition Yposition Zposition Zrotation Xrotation Yrotation 
		JOINT Spine
		{
			OFFSET 15.7357 0.0 0.0
			CHANNELS 6 Xposition Yposition Zposition Zrotation Xrotation Yrotation 
			JOINT Chest
			{
				OFFSET 8.98455 -0.406207 0.0
				CHANNELS 6 Xposition Yposition Zposition Zrotation Xrotation Yrotation 
				JOINT Neck
				{
					OFFSET 16.3773 0.0 0.0
					CHANNELS 6 Xposition Yposition Zposition Zrotation Xrotation Yrotation 
					JOINT Head
					{
						OFFSET 6.45672 0.0 0.0
						CHANNELS 6 Xposition Yposition Zposition Zrotation Xrotation Yrotation 
						End Site
						{
							OFFSET 0.0 0.0 0.0
						}
					}
				}
				JOINT Shoulder_L
				{
					OFFSET 12.9942 -0.242716 4.98039
					CHANNELS 6 Xposition Yposition Zposition Zrotation Xrotation Yrotation 
					JOINT UpperArm_L
					{
						OFFSET 5.34809 0.0 0.0
						CHANNELS 6 Xposition Yposition Zposition Zrotation Xrotation Yrotation 
						JOINT LowerArm_L
						{
							OFFSET 24.3286 1.87007e-05 0.0
							CHANNELS 6 Xposition Yposition Zposition Zrotation Xrotation Yrotation 
							JOINT Hand_L
							{
								OFFSET 22.2916 0.0 0.0
								CHANNELS 6 Xposition Yposition Zposition Zrotation Xrotation Yrotation 
								End Site
								{
									OFFSET 0.0 0.0 0.0
								}
							}
						}
					}
				}
				JOINT Shoulder_R
				{
					OFFSET 12.9945 -0.242716 -4.98039
					CHANNELS 6 Xposition Yposition Zposition Zrotation Xrotation Yrotation 
					JOINT UpperArm_R
					{
						OFFSET -5.34813 0.0 0.0
						CHANNELS 6 Xposition Yposition Zposition Zrotation Xrotation Yrotation 
						JOINT LowerArm_R
						{
							OFFSET -24.3289 0.000322201 0.0
							CHANNELS 6 Xposition Yposition Zposition Zrotation Xrotation Yrotation 
							JOINT Hand_R
							{
								OFFSET -22.2915 -0.000108084 0.0
								CHANNELS 6 Xposition Yposition Zposition Zrotation Xrotation Yrotation 
								End Site
								{
									OFFSET 0.0 0.0 0.0
								}
							}
						}
					}
				}
			}
		}
		JOINT UpperLeg_L
		{
			OFFSET -2.19248 -6.46944 0.0
			CHANNELS 6 Xposition Yposition Zposition Zrotation Xrotation Yrotation 
			JOINT LowerLeg_L
			{
				OFFSET 39.0811 0.0 -1.23785e-05
				CHANNELS 6 Xposition Yposition Zposition Zrotation Xrotation Yrotation 
				JOINT Foot_L
				{
					OFFSET 40.9854 0.0 -1.26872e-05
					CHANNELS 6 Xposition Yposition Zposition Zrotation Xrotation Yrotation 
					JOINT Toes_L
					{
						OFFSET 11.7543 0.0 0.0
						CHANNELS 6 Xposition Yposition Zposition Zrotation Xrotation Yrotation 
						End Site
						{
							OFFSET 0.0 0.0 0.0
						}
					}
				}
			}
		}
		JOINT UpperLeg_R
		{
			OFFSET -2.19251 6.46944 0.0
			CHANNELS 6 Xposition Yposition Zposition Zrotation Xrotation Yrotation 
			JOINT LowerLeg_R
			{
				OFFSET -39.0811 -0.00228153 -0.0401928
				CHANNELS 6 Xposition Yposition Zposition Zrotation Xrotation Yrotation 
				JOINT Foot_R
				{
					OFFSET -40.9854 0.0 0.0
					CHANNELS 6 Xposition Yposition Zposition Zrotation Xrotation Yrotation 
					JOINT Toes_R
					{
						OFFSET -11.7543 0.0 0.0
						CHANNELS 6 Xposition Yposition Zposition Zrotation Xrotation Yrotation 
						End Site
						{
							OFFSET 0.0 0.0 0.0
						}
					}
				}
			}
		}
	}
}
MOTION
Frames:	7
Frame Time:	0.0333333
0.000000 0.000000 0.000000 0.000000 0.000000 -0.000000 -2.694810 90.483400 -2.860770 90.028100 -3.955320 15.365900 15.735700 0.000005 -0.000001 81.574400 81.478800 -80.400400 8.984550 -0.406207 -0.000000 9.125220 -2.469860 2.543500 16.377300 -0.000001 -0.000001 28.072000 -8.995980 0.512301 6.456720 -0.000001 -0.000000 18.327600 -10.082100 2.564310 12.994200 -0.242716 4.980390 -88.622700 -3.505130 -68.532500 5.348090 -0.000007 -0.000001 -50.538100 -42.605000 -77.202600 24.328600 0.000019 0.000005 6.676600 12.954500 -27.572400 22.291600 -0.000001 0.000005 17.864500 5.134530 4.310780 12.994500 -0.242716 -4.980390 88.266400 9.379060 -79.478700 -5.348130 -0.000001 -0.000004 -63.296200 29.846800 -5.512450 -24.328900 0.000322 -0.000009 1.286640 4.861650 -14.854500 -22.291500 -0.000108 -0.000004 13.746800 5.370010 -1.986930 -2.192480 -6.469440 -0.000000 -172.873000 -12.500300 2.803330 39.081100 -0.000007 -0.000012 -0.201486 0.316188 32.507000 40.985400 -0.000006 -0.000013 -1.047260 4.616430 -69.270100 11.754300 -0.000000 0.000003 -0.000081 -0.000860 -16.610700 -2.192510 6.469440 -0.000001 175.221000 16.868600 -177.034000 -39.081100 -0.002282 -0.040193 -0.152388 0.241014 32.860700 -40.985400 0.000008 0.000006 5.205810 11.440500 -70.767200 -11.754300 -0.000006 -0.000006 -0.003417 -0.045228 -18.412600
0.000000 0.000000 0.000000 0.000000 0.000000 -0.000000 -2.550180 90.483800 -2.816060 90.060300 -3.273120 15.402600 15.735700 0.000005 -0.000001 81.943200 81.498800 -80.858200 8.984550 -0.406207 -0.000000 9.097640 -2.357690 2.355860 16.377300 -0.000001 -0.000001 28.063500 -8.666050 0.052596 6.456720 -0.000001 -0.000000 18.287500 -9.647730 2.017110 12.994200 -0.242716 4.980390 -88.564100 -3.649780 -68.506600 5.348090 -0.000007 -0.000001 -48.401000 -41.231900 -78.206700 24.328600 0.000019 0.000005 6.951900 11.849900 -30.701000 22.291600 -0.000001 0.000005 17.993600 5.155810 3.803970 12.994500 -0.242716 -4.980390 88.310200 9.344700 -79.702600 -5.348130 -0.000001 -0.000004 -63.447400 30.525800 -6.487170 -24.328900 0.000322 -0.000009 1.236650 4.477750 -15.468700 -22.291500 -0.000108 -0.000004 13.710200 5.373750 -2.102970 -2.192480 -6.469440 -0.000000 -173.145000 -12.044800 2.732000 39.081100 -0.000007 -0.000012 -0.200414 0.314229 32.530000 40.985400 -0.000006 -0.000013 -0.897415 4.741960 -69.274700 11.754300 -0.000000 0.000003 -0.000086 -0.000907 -16.612400 -2.192510 6.469440 -0.000001 174.911000 17.322100 -176.865000 -39.081100 -0.002282 -0.040193 -0.156016 0.246707 32.852600 -40.985400 0.000008 0.000006 5.043150 11.305600 -70.802100 -11.754300 -0.000006 -0.000006 -0.003396 -0.044999 -18.403300
0.000000 0.000000 0.000000 0.000000 0.000000 -0.000000 -2.410380 90.495800 -2.737060 90.084700 -2.679640 15.436500 15.735700 0.000005 -0.000001 82.340800 81.534400 -81.339400 8.984550 -0.406207 -0.000000 9.039560 -2.233580 2.177850 16.377300 -0.000001 -0.000001 28.109300 -8.341010 -0.492190 6.456720 -0.000001 -0.000000 18.277200 -9.259390 1.507560 12.994200 -0.242716 4.980390 -88.515900 -3.754440 -68.413300 5.348090 -0.000007 -0.000001 -46.159300 -39.978200 -79.536900 24.328600 0.000019 0.000005 7.530530 11.268400 -34.078900 22.291600 -0.000001 0.000005 18.492400 5.171880 3.414680 12.994500 -0.242716 -4.980390 88.341200 9.309300 -79.850100 -5.348130 -0.000001 -0.000004 -63.430900 31.391700 -7.541340 -24.328900 0.000322 -0.000009 1.194400 4.081540 -16.340200 -22.291500 -0.000108 -0.000004 13.712100 5.378820 -2.261250 -2.192480 -6.469440 -0.000000 -173.363000 -11.759800 2.744290 39.081100 -0.000007 -0.000012 -0.192820 0.302801 32.488900 40.985400 -0.000006 -0.000013 -0.722496 4.935210 -69.280900 11.754300 -0.000000 0.000003 -0.000079 -0.000839 -16.609900 -2.192510 6.469440 -0.000001 174.593000 17.748700 -176.643000 -39.081100 -0.002282 -0.040193 -0.162422 0.257401 32.774100 -40.985400 0.000008 0.000006 4.897390 11.282200 -70.823700 -11.754300 -0.000006 -0.000006 -0.003200 -0.042841 -18.315500
0.000000 0.000000 0.000000 0.000000 0.000000 -0.000000 -2.258400 90.509800 -2.681620 90.138500 -2.205220 15.399300 15.735700 0.000005 -0.000001 82.693400 81.607200 -81.777900 8.984550 -0.406207 -0.000000 8.905430 -2.114690 1.994430 16.377300 -0.000001 -0.000001 28.230100 -8.009680 -0.985690 6.456720 -0.000001 -0.000000 18.242900 -8.920170 0.852650 12.994200 -0.242716 4.980390 -88.451600 -3.878820 -68.218000 5.348090 -0.000007 -0.000001 -44.177800 -38.898200 -81.244100 24.328600 0.000019 0.000005 8.302950 10.936200 -37.568600 22.291600 -0.000001 0.000005 18.725400 5.195860 2.822830 12.994500 -0.242716 -4.980390 88.392800 9.258560 -80.107300 -5.348130 -0.000001 -0.000004 -63.347400 32.146100 -8.503180 -24.328900 0.000322 -0.000009 1.192590 3.784730 -17.518800 -22.291500 -0.000108 -0.000004 13.733700 5.379820 -2.292860 -2.192480 -6.469440 -0.000000 -173.593000 -11.599500 2.702990 39.081100 -0.000007 -0.000012 -0.186316 0.293299 32.425700 40.985400 -0.000006 -0.000013 -0.546097 5.128860 -69.270100 11.754300 -0.000000 0.000003 -0.000080 -0.000847 -16.610200 -2.192510 6.469440 -0.000001 174.315000 18.014400 -176.542000 -39.081100 -0.002282 -0.040193 -0.169965 0.269739 32.713900 -40.985400 0.000008 0.000006 4.722320 11.195400 -70.824300 -11.754300 -0.000006 -0.000006 -0.003126 -0.042015 -18.281800
0.000000 0.000000 0.000000 0.000000 0.000000 -0.000000 -2.100980 90.526200 -2.634260 90.164500 -1.823380 15.358000 15.735700 0.000005 -0.000001 82.965000 81.681200 -82.123000 8.984550 -0.406207 -0.000000 8.765890 -2.020190 1.837490 16.377300 -0.000001 -0.000001 28.356600 -7.660740 -1.543810 6.456720 -0.000001 -0.000000 18.159500 -8.553700 0.246095 12.994200 -0.242716 4.980390 -88.387800 -3.996050 -68.006400 5.348090 -0.000007 -0.000001 -42.035900 -38.069100 -82.971600 24.328600 0.000019 0.000005 9.295060 10.769900 -41.213500 22.291600 -0.000001 0.000005 19.183400 5.213720 2.372820 12.994500 -0.242716 -4.980390 88.451100 9.185430 -80.386100 -5.348130 -0.000001 -0.000004 -63.147000 32.963400 -9.474540 -24.328900 0.000322 -0.000009 1.152260 3.385980 -18.822200 -22.291500 -0.000108 -0.000004 13.867900 5.383360 -2.404190 -2.192480 -6.469440 -0.000000 -173.788000 -11.480500 2.663490 39.081100 -0.000007 -0.000012 -0.182161 0.287416 32.366400 40.985400 -0.000006 -0.000013 -0.370841 5.297000 -69.262500 11.754300 -0.000000 0.000003 -0.000084 -0.000882 -16.611500 -2.192510 6.469440 -0.000001 174.062000 18.315600 -176.451000 -39.081100 -0.002282 -0.040193 -0.172571 0.274644 32.633400 -40.985400 0.000008 0.000006 4.592730 11.241200 -70.804700 -11.754300 -0.000006 -0.000006 -0.003013 -0.040749 -18.230300
0.000000 0.000000 0.000000 0.000000 0.000000 -0.000000 -1.936770 90.540600 -2.569000 90.209000 -1.475630 15.316200 15.735700 0.000005 -0.000001 83.133200 81.738800 -82.380000 8.984550 -0.406207 -0.000000 8.655040 -1.959960 1.653370 16.377300 -0.000001 -0.000001 28.447300 -7.341780 -2.109960 6.456720 -0.000001 -0.000000 18.064600 -8.203520 -0.260394 12.994200 -0.242716 4.980390 -88.316900 -4.121020 -67.760300 5.348090 -0.000007 -0.000001 -39.824500 -37.523600 -84.738300 24.328600 0.000019 0.000005 10.695300 10.874400 -45.031500 22.291600 -0.000001 0.000005 19.594400 5.228030 2.006280 12.994500 -0.242716 -4.980390 88.494500 9.146360 -80.611900 -5.348130 -0.000001 -0.000004 -62.853700 33.725100 -10.492900 -24.328900 0.000322 -0.000009 1.129140 3.097880 -20.054900 -22.291500 -0.000108 -0.000004 14.065700 5.392350 -2.690590 -2.192480 -6.469440 -0.000000 -174.018000 -11.304900 2.644590 39.081100 -0.000007 -0.000012 -0.177916 0.281470 32.297100 40.985400 -0.000006 -0.000013 -0.224619 5.377070 -69.267600 11.754300 -0.000000 0.000003 -0.000086 -0.000908 -16.612500 -2.192510 6.469440 -0.000001 173.751000 18.691000 -176.341000 -39.081100 -0.002282 -0.040193 -0.174366 0.278174 32.565500 -40.985400 0.000008 0.000006 4.484140 11.373400 -70.809400 -11.754300 -0.000006 -0.000006 -0.003161 -0.042416 -18.298100
0.000000 0.000000 0.000000 0.000000 0.000000 -0.000000 -1.772920 90.554000 -2.494490 90.259000 -1.187300 15.295700 15.735700 0.000005 -0.000001 83.310800 81.778800 -82.646200 8.984550 -0.406207 -0.000000 8.579450 -1.901320 1.470640 16.377300 -0.000001 -0.000001 28.431600 -7.033810 -2.633070 6.456720 -0.000001 -0.000000 17.988300 -7.854560 -0.767048 12.994200 -0.242716 4.980390 -88.251500 -4.230280 -67.518300 5.348090 -0.000007 -0.000001 -37.820900 -37.180500 -86.539500 24.328600 0.000019 0.000005 12.568800 11.095900 -49.199100 22.291600 -0.000001 0.000005 19.852400 5.242730 1.623940 12.994500 -0.242716 -4.980390 88.528200 9.104700 -80.777400 -5.348130 -0.000001 -0.000004 -62.488800 34.503400 -11.489900 -24.328900 0.000322 -0.000009 1.120460 2.882240 -21.272400 -22.291500 -0.000108 -0.000004 14.273200 5.393830 -2.738040 -2.192480 -6.469440 -0.000000 -174.209000 -11.235200 2.675270 39.081100 -0.000007 -0.000012 -0.176633 0.280268 32.220700 40.985400 -0.000006 -0.000013 -0.067816 5.502080 -69.281500 11.754300 -0.000000 0.000003 -0.000084 -0.000883 -16.611500 -2.192510 6.469440 -0.000001 173.438000 19.017600 -176.209000 -39.081100 -0.002282 -0.040193 -0.177785 0.284243 32.500000 -40.985400 0.000008 0.000006 4.369460 11.490200 -70.817500 -11.754300 -0.000006 -0.000006 -0.003169 -0.042504 -18.301700
